{"title":"Enter.Nowhere.2011.DVDRip.x264-miRaGe","uid":7157998,"size":735133078,"categoryP":"video","categoryS":"movies","magnet":"?xt=urn:btih:380b529d6ba61ef8a743fab21b31364521ef8d33&amp;dn=Enter.Nowhere.2011.DVDRip.x264-miRaGe&amp;tr=udp%3A%2F%2Ftracker.openbittorrent.com%3A80&amp;tr=udp%3A%2F%2Fopen.demonii.com%3A1337&amp;tr=udp%3A%2F%2Ftracker.coppersurfer.tk%3A6969&amp;tr=udp%3A%2F%2Fexodus.desync.com%3A6969","seeders":2,"leechers":2,"uploader":".BONE.","files":1,"time":1333509870,"description":"online info\n___________\nimdb: http://www.imdb.com/title/tt1631707/\ntrailer: http://www.imdb.com/video/screenplay/vi1602134297/\nrated: R\nruntime: 90 min\ngenre: Horror | Mystery | Thriller\nrelease date: 2011\nplot: Three strangers arrive one by one at a mysterious cabin in the middle of nowhere only to learn they've been brought together for a reason.\n\n\nGeneral\n_______\nComplete name : Enter.Nowhere.2011.DVDRip.x264-miRaGe.mp4\nFormat : MPEG-4\nFormat profile : Base Media / Version 2\nCodec ID : mp42\nFile size : 701 MiB\nDuration : 1h 29mn\nOverall bit rate mode : Variable\nOverall bit rate : 1 096 Kbps\n\n\nVideo\n_____\nID : 1\nFormat : AVC\nFormat/Info : Advanced Video Codec\nFormat profile : &lt;a class=&quot;__cf_email__&quot; href=&quot;/cdn-cgi/l/email-protection&quot; data-cfemail=&quot;2e634f47406e621d001e&quot;&gt;[email&amp;#160;protected]&lt;/a&gt;&lt;script cf-hash='f9e31' type=&quot;text/javascript&quot;&gt;\n/* &lt;![CDATA[ */!function(){try{var t=&quot;currentScript&quot;in document?document.currentScript:function(){for(var t=document.getElementsByTagName(&quot;script&quot;),e=t.length;e--;)if(t[e].getAttribute(&quot;cf-hash&quot;))return t[e]}();if(t&amp;&amp;t.previousSibling){var e,r,n,i,c=t.previousSibling,a=c.getAttribute(&quot;data-cfemail&quot;);if(a){for(e=&quot;&quot;,r=parseInt(a.substr(0,2),16),n=2;a.length-n;n+=2)i=parseInt(a.substr(n,2),16)^r,e+=String.fromCharCode(i);e=document.createTextNode(e),c.parentNode.replaceChild(e,c)}}}catch(u){}}();/* ]]&gt; */&lt;/script&gt;\nFormat settings, CABAC : Yes\nFormat settings, ReFrames : 2 frames\nCodec ID : avc1\nCodec ID/Info : Advanced Video Coding\nDuration : 1h 29mn\nBit rate mode : Variable\nBit rate : 931 Kbps\nWidth : 720 pixels\nHeight : 360 pixels\nDisplay aspect ratio : 2.35:1\nFrame rate mode : Variable\nFrame rate : 23.976 fps\nMinimum frame rate : 14.985 fps\nMaximum frame rate : 29.970 fps\nColor space : YUV\nChroma subsampling : 4:2:0\nBit depth : 8 bits\nScan type : Progressive\nBits/(Pixel*Frame) : 0.150\nStream size : 596 MiB (85%)\nWriting library : x264 core 79\n\n\nAudio\n_____\nID : 2\nFormat : AAC\nFormat/Info : Advanced Audio Codec\nFormat profile : LC\nCodec ID : 40\nDuration : 1h 29mn\nBit rate mode : Variable\nBit rate : 160 Kbps\nMaximum bit rate : 224 Kbps\nChannel(s) : 2 channels\nChannel positions : Front: L R\nSampling rate : 48.0 KHz\nCompression mode : Lossy\nStream size : 102 MiB (15%)\nLanguage : English\n\n\nnotes\n_____\nEncoded by: Smallz\n\nLooking for cammers or suppliers who can bring unreleased movies/games/etc\n\nservers, accounts, etc\n\n\ngreetz\n______\nthanks to 26k, HDscene, Vision, Noir, BTVRG, and everyone else we respect\n\nspecial shout out to everyone at the underground\n &lt;a href=&quot;\nhttp://i1231.photobucket.com/albums/ee513/demonlord4000/Uploading/EnterNowhere2011DVDRipx264-miRaGemp4_thumbs_20120403_124944.jpg&quot; rel=&quot;nofollow&quot; target=&quot;_NEW&quot;&gt;\nhttp://i1231.photobucket.com/albums/ee513/demonlord4000/Uploading/EnterNowhere2011DVDRipx264-miRaGemp4_thumbs_20120403_124944.jpg&lt;/a&gt;","torrent":{"xt":"urn:btih:380b529d6ba61ef8a743fab21b31364521ef8d33","amp;dn":"Enter.Nowhere.2011.DVDRip.x264-miRaGe","amp;tr":["udp%3A%2F%2Ftracker.openbittorrent.com%3A80","udp%3A%2F%2Fopen.demonii.com%3A1337","udp%3A%2F%2Ftracker.coppersurfer.tk%3A6969","udp%3A%2F%2Fexodus.desync.com%3A6969"],"infoHash":"380b529d6ba61ef8a743fab21b31364521ef8d33","infoHashBuffer":{"type":"Buffer","data":[56,11,82,157,107,166,30,248,167,67,250,178,27,49,54,69,33,239,141,51]},"announce":[],"urlList":[]}}